<svg xmlns="http://www.w3.org/2000/svg" width="200" height="200" viewBox="0 0 1488 390" fill="none"><path d="M572.084 216.356V123H539.016V214.945C539.016 232.89 532.564 241.561 517.441 241.561C502.52 241.561 496.068 232.89 496.068 214.945V123H463V216.356C463 245.795 480.945 266.16 517.441 266.16C553.937 266.16 572.084 244.585 572.084 216.356Z" fill="#1979F5"></path><path d="M638.294 209.299L666.926 262.732H704.228L668.74 203.25C686.888 194.983 695.558 183.893 695.558 165.545C695.558 136.509 675.999 123 638.092 123H592.321V262.732H625.389V209.299H638.294ZM625.389 186.515V146.188H637.286C653.618 146.188 661.482 152.035 661.482 165.545C661.482 180.264 653.82 186.515 639.302 186.515H625.389Z" fill="#1979F5"></path><path d="M819.802 216.356V123H786.734V214.945C786.734 232.89 780.282 241.561 765.159 241.561C750.238 241.561 743.786 232.89 743.786 214.945V123H710.718V216.356C710.718 245.795 728.664 266.16 765.159 266.16C801.655 266.16 819.802 244.585 819.802 216.356Z" fill="#1979F5"></path><path d="M947.712 262.732V123H918.072V179.457C918.072 201.839 920.693 220.187 922.508 231.479L881.173 123H840.039V262.732H869.478V211.517C869.478 185.708 866.857 167.158 865.244 154.455L905.57 262.732H947.712Z" fill="#1979F5"></path><path d="M1052.44 123H1013.52V262.732H1055.46C1091.15 262.732 1125.03 248.416 1125.03 192.16C1125.03 134.493 1089.74 123 1052.44 123ZM1046.59 146.994H1057.08C1076.43 146.994 1090.75 154.657 1090.75 192.16C1090.75 229.261 1077.44 238.738 1057.48 238.738H1046.59V146.994Z" fill="#1979F5"></path><path d="M1201.06 232.689L1208.32 262.732H1243.4L1201.26 123H1161.14L1119 262.732H1153.27L1160.33 232.689H1201.06ZM1195.42 208.694H1165.98L1180.7 146.994L1195.42 208.694Z" fill="#1979F5"></path><path d="M1357.3 262.732V123H1327.66V179.457C1327.66 201.839 1330.28 220.187 1332.09 231.479L1290.76 123H1249.62V262.732H1279.06V211.517C1279.06 185.708 1276.44 167.158 1274.83 154.455L1315.15 262.732H1357.3Z" fill="#1979F5"></path><path d="M1445.63 232.689L1452.89 262.732H1487.97L1445.83 123H1405.71L1363.56 262.732H1397.84L1404.9 232.689H1445.63ZM1439.98 208.694H1410.54L1425.26 146.994L1439.98 208.694Z" fill="#1979F5"></path><path d="M192.461 169.761H159.311C159.311 162.847 151.177 153.492 136.942 153.492C126.978 153.492 114.776 157.966 114.776 165.897C114.776 172.608 123.927 175.251 143.45 180.335C165.209 186.029 195.917 193.35 195.917 223.854C195.917 250.291 172.734 266.763 140.4 266.763C97.0841 266.763 78.9853 237.48 78.9853 215.923H112.135C112.135 215.923 114.779 237.886 142.233 237.886C157.078 237.886 162.568 231.582 162.568 225.684C162.568 216.937 150.977 213.89 138.166 210.839C117.423 205.959 81.0216 198.231 81.0216 167.524C81.0216 142.307 105.831 123.598 137.352 123.598C173.346 123.598 192.461 148.204 192.461 169.761Z" fill="#1979F5"></path><path d="M310.914 129.589H204.964V160.5H310.914V129.589Z" fill="#1979F5"></path><path d="M282.698 179.979H204.964V210.89H282.698V179.979Z" fill="#1979F5"></path><path d="M238.315 230.367H204.964V261.278H238.315V230.367Z" fill="#1979F5"></path><path fill-rule="evenodd" clip-rule="evenodd" d="M194.652 0C124.068 0 63.4769 35.6014 28.3184 97.6732C13.7848 123.346 6.89241 151.048 7.85404 179.975L7.90975 180.242C9.78008 226.356 29.6567 269.002 63.746 300.279C75.3858 311.609 88.7949 320.965 103.446 327.98L103.606 327.713C127.54 339.685 153.947 345.882 180.709 345.807C220.272 345.757 258.633 332.199 289.44 307.376C262.819 322.94 232.542 331.156 201.705 331.182C159.12 331.182 118.189 316.345 86.4524 289.391C53.9659 261.797 35.051 224.54 33.2341 184.459C31.5242 146.777 45.6851 110.27 73.0408 81.6615C104.245 49.0503 148.594 30.3164 194.705 30.3164C216.335 30.2977 237.757 34.5412 257.746 42.8045C277.735 51.0678 295.9 63.1888 311.203 78.475C326.506 93.7611 338.647 111.913 346.932 131.893C355.217 151.873 359.484 173.29 359.49 194.92C359.49 277.382 298.257 347.194 216.72 358.082V358.138L214.101 358.405C207.645 359.152 201.151 359.525 194.652 359.524C192.462 359.524 190.164 359.469 187.653 359.364C131.282 359.044 85.7047 341.858 52.4165 308.392C23.3493 279.198 8.01227 241.462 0 209.971C6.04221 288.404 58.7011 354.008 130.246 379.076C150.963 386.327 172.758 390.021 194.707 390C302.371 390 389.999 302.467 389.999 194.92C389.944 87.4792 302.317 0 194.652 0Z" fill="#1979F5"></path></svg>