<svg viewBox="0 0 1024 1176.463" xmlns="http://www.w3.org/2000/svg"><path d="M960.832 484.448c-2.62-.2-5.672-.313-8.752-.313-15.49 0-30.308 2.872-43.952 8.114l.84-.284c-4 1.6-10.398 1.6-10.958 6.678 2.2 2.12 2.52 5.598 4.4 8.557 3.748 6.337 8.352 11.718 13.735 16.196l.1.08c5.598 4.4 11.2 8.64 17.075 12.398 10.397 6.4 22.194 10.197 32.39 16.635 5.8 3.758 11.717 8.517 17.596 12.515 2.92 2 4.8 5.598 8.557 6.878v-.8c-1.84-2.4-2.4-5.878-4.198-8.557-2.68-2.68-5.36-5.078-8-7.718-7.938-10.393-17.104-19.305-27.41-26.73l-.382-.262c-8.557-5.84-27.272-13.996-30.79-23.793l-.52-.56c6.967-.987 13.176-2.467 19.153-4.458l-.76.22c9.078-2.4 17.395-1.88 26.792-4.24 4.24-1.08 8.518-2.4 12.8-3.76v-2.398c-4.8-4.8-8.398-11.317-13.356-15.796-13.103-11.503-27.517-22.344-42.722-32.057l-1.426-.852c-8.397-5.358-19.034-8.796-27.872-13.355-3.2-1.6-8.557-2.4-10.397-5.08-4.148-5.924-7.84-12.692-10.75-19.862l-.247-.69q-11.776-22.85-21.874-46.508c-4.61-12.25-9.187-22.306-14.323-32.018l.728 1.507c-25.147-42.206-60.183-76.14-102.024-99.266l-1.386-.702c-9.898-4.883-21.383-8.692-33.443-10.84l-.788-.116c-6.678-.32-13.356-.8-19.994-1.08-4.66-2.997-8.708-6.092-12.49-9.478l.093.08c-15.196-9.6-54.544-30.39-65.74-2.88-7.2 17.356 10.676 34.47 16.874 43.27 4.92 5.858 9.424 12.404 13.275 19.36l.32.634c1.88 4.64 2.4 9.397 4.28 14.236 4.63 14.46 9.334 26.335 14.7 37.838l-.825-1.968c3.18 6.36 6.462 11.767 10.128 16.88l-.25-.368c2.158 2.92 5.838 4.278 6.677 9.077-2.752 5.784-4.895 12.5-6.094 19.535l-.064.46c-3.47 10.635-5.47 22.874-5.47 35.58 0 19.87 4.893 38.598 13.54 55.044l-.312-.65c4.28 6.638 14.476 21.354 28.112 15.715 11.996-4.8 9.357-19.994 12.796-33.39.8-3.2.28-5.318 1.92-7.478v.6c3.76 7.517 7.518 14.676 10.957 22.193 9.67 13.922 21.147 25.756 34.266 35.504l.403.286c6.4 4.8 11.475 13.116 19.474 16.075v-.8h-.6c-1.825-1.976-3.843-3.728-6.038-5.24l-.12-.077c-4.976-4.874-9.564-10.096-13.742-15.644l-.253-.35c-10.417-14.07-20.337-30.013-28.95-46.74l-.92-1.965c-4.4-8.398-8.078-17.436-11.597-25.714-1.6-3.2-1.6-8-4.28-9.6-4.742 5.305-8.983 11.24-12.538 17.61l-.257.502c-4.082 11.927-6.776 25.715-7.503 40.022l-.015.366c-1.08.28-.56 0-1.08.56-8.557-2.08-11.476-10.957-14.676-18.395-4.365-11.72-6.892-25.264-6.892-39.398 0-11.392 1.64-22.4 4.7-32.8l-.207.82c1.88-5.6 9.877-23.274 6.678-28.632-1.68-5.078-6.958-8-9.877-12.116-3.495-4.924-6.703-10.532-9.35-16.446l-.25-.63c-6.4-14.955-9.6-31.51-16.555-46.463-4.19-7.818-8.618-14.53-13.577-20.805l.222.29c-5.294-6.12-10.16-12.922-14.37-20.152l-.346-.64c-1.32-2.92-3.2-7.76-1.08-10.958.385-1.864 1.87-3.295 3.732-3.595l.026-.003c3.52-2.88 13.396.88 16.875 2.48 10.14 3.844 18.867 8.338 26.99 13.674l-.518-.32c3.76 2.64 7.798 7.72 12.596 9.038h5.6c8.557 1.88 18.195.56 26.192 2.92 14.682 4.948 27.403 11.174 39.132 18.798l-.663-.404c35.33 22.805 63.623 53.674 82.752 90.108l.625 1.306c3.2 6.158 4.6 11.796 7.518 18.195 5.598 13.196 12.516 26.513 18.195 39.27 5.396 13.71 11.794 25.528 19.408 36.434l-.374-.564c4 5.6 20.074 8.518 27.272 11.437 7.578 2.654 13.654 5.193 19.564 8.022l-1.17-.504c9.198 5.6 18.156 11.997 26.793 18.155 4.398 3.04 17.714 9.72 18.515 15.117zM585.66 718.46c.013.47.02 1.023.02 1.578 0 17.85-7.983 33.836-20.574 44.582l-.08.068c-13.817 11.276-31.647 18.108-51.073 18.108-1.503 0-2.996-.04-4.478-.122l.206.01c-23.632-.327-45.41-7.996-63.23-20.82l.33.224 9.476-19.034c13.742 7.67 30.037 12.45 47.387 13.11l.198.006c.86.053 1.862.083 2.872.083 10.637 0 20.498-3.323 28.602-8.987l-.162.107c7.32-5.56 12-14.272 12-24.076 0-.182 0-.363-.004-.544v.027c0-13.197-9.197-24.394-25.912-33.792-15.516-8.517-46.506-26.272-46.506-26.272-15.28-9.46-25.308-26.133-25.308-45.147 0-.676.013-1.348.038-2.017l-.003.097c-.023-.598-.037-1.3-.037-2.004 0-16.482 7.265-31.267 18.767-41.328l.064-.055c12.24-10.364 28.207-16.665 45.646-16.665 1.105 0 2.204.025 3.297.075l-.155-.006c.296-.003.646-.005.996-.005 20.46 0 39.49 6.12 55.36 16.633l-.373-.232-8.516 19.034c-12.516-5.642-27.115-9.008-42.48-9.197h-.068c-.76-.056-1.645-.087-2.537-.087-8.974 0-17.215 3.14-23.683 8.38l.07-.055c-6.043 5.03-9.875 12.54-9.92 20.946v.008c0 13.116 9.357 24.393 26.632 33.99 15.714 8.598 47.465 26.792 47.465 26.792 15.62 9.18 25.94 25.9 25.94 45.03 0 .59-.01 1.177-.03 1.76l.003-.084zm66.303 16.995c-8.72-17.43-13.824-37.975-13.824-59.71 0-3.417.125-6.804.373-10.157l-.027.448q0-83.556 50.786-83.576c.848-.06 1.837-.094 2.835-.094 15.208 0 28.56 7.946 36.13 19.913l.105.174c8.683 17.355 13.766 37.81 13.766 59.452 0 3.325-.12 6.62-.356 9.886l.025-.438q0 84.215-50.785 84.296c-.856.06-1.854.096-2.86.096-15.213 0-28.57-7.946-36.145-19.915l-.104-.174zm131.642 49.664l-40.628-19.995c3.72-3.097 7.054-6.368 10.106-9.89l.09-.107c16.416-22.145 26.277-50.007 26.277-80.172 0-3.49-.132-6.952-.392-10.377l.028.455q0-109.77-86.175-109.81c-1.28-.07-2.78-.11-4.29-.11-24.552 0-46.584 10.79-61.61 27.89l-.08.093c-16.354 22.15-26.175 49.995-26.175 80.132 0 3.393.124 6.757.37 10.088l-.027-.445c-.285 3.242-.448 7.014-.448 10.824 0 27.967 8.758 53.888 23.68 75.17l-.28-.42c14.376 15.295 34.738 24.82 57.324 24.82 2.104 0 4.188-.082 6.25-.244l-.273.017c.304.003.66.005 1.02.005 9.963 0 19.593-1.433 28.692-4.105l-.72.18 52.986 30.872 14.396-24.873zm132.762-5.4H811.194V558.587h35.392V752.53h69.78zM423.505 616.57c-9.174 66.695-30.193 126.89-60.957 180.806l1.29-2.458c-12.324 23.71-35.618 40.228-62.97 42.88l-.325.025c-8.287-.438-16.006-2.427-23.02-5.68l.387.16V812.55c4.385.664 9.445 1.043 14.594 1.043.296 0 .592 0 .887-.004h-.044c.5.023 1.088.037 1.68.037 9.256 0 17.724-3.373 24.243-8.958l-.05.04c7.045-5.8 11.567-14.445 11.795-24.153v-.038c-1.69-14.03-4.922-26.79-9.568-38.847l.372 1.097-40.552-126.203h36.39l29.07 94.373c5.19 13.31 8.198 28.72 8.198 44.832v.08-.005c15.416-40.394 27.147-87.477 33.1-136.344l.29-2.936zM262.872 779.723h-37.07q-1.563-88.368-10.796-176.35h-.32l-56.384 176.35h-28.19l-55.985-176.35h-.398q-6.57 88.038-7.8 176.35H32.14q3.3-117.926 16.395-221.137h45.987L147.906 721.1h.32l53.864-162.514h43.788q14.516 120.866 17.115 221.137zm425.28-527.608h-.242c-3.805 0-7.498.48-11.02 1.386l.306-.066v.518h.56c2.74 4.086 5.555 7.65 8.617 10.982l-.06-.065c2.16 4.277 4 8.556 6.16 12.795l.56-.6c3.475-2.748 5.685-6.965 5.685-11.697 0-.57-.032-1.133-.095-1.687l.006.07c-1.6-1.88-1.84-3.76-3.2-5.6-1.6-2.678-5.04-3.998-7.2-6.117z"/></svg>